<svg width="12.000000" height="7.000000" viewBox="0 0 12 7" fill="none" xmlns="http://www.w3.org/2000/svg" xmlns:xlink="http://www.w3.org/1999/xlink">
	<desc>
			Created with Pixso.
	</desc>
	<defs/>
	<path id="Vector" d="M6.46 6.78L11.8 1.66C11.93 1.54 12 1.39 12 1.21C12 1.04 11.93 0.89 11.8 0.76L11.2 0.18C11.07 0.06 10.91 0 10.73 0C10.55 -0.02 10.39 0.03 10.26 0.16L6 4.25L1.73 0.16C1.6 0.03 1.44 -0.02 1.26 0C1.08 0 0.92 0.06 0.79 0.18L0.19 0.76C0.06 0.89 0 1.04 0 1.21C0 1.39 0.06 1.54 0.19 1.66L5.53 6.78C5.66 6.92 5.81 7 6 7C6.18 7 6.33 6.92 6.46 6.78Z" fill="#FFFFFF" fill-opacity="1.000000" fill-rule="nonzero"/>
</svg>
