<svg width="20.632812" height="30.000000" viewBox="0 0 20.6328 30" fill="none" xmlns="http://www.w3.org/2000/svg" xmlns:xlink="http://www.w3.org/1999/xlink">
	<desc>
			Created with Pixso.
	</desc>
	<defs/>
	<path id="Vector" d="M10.31 9.07C8.27 9.07 6.28 9.68 4.58 10.83C2.88 11.98 1.56 13.62 0.78 15.53C0 17.44 -0.2 19.54 0.19 21.57C0.59 23.6 1.57 25.47 3.02 26.93C4.46 28.39 6.3 29.39 8.3 29.79C10.3 30.2 12.37 29.99 14.26 29.2C16.14 28.41 17.76 27.07 18.89 25.35C20.02 23.63 20.63 21.6 20.63 19.53C20.63 16.76 19.54 14.1 17.61 12.14C15.67 10.17 13.05 9.07 10.31 9.07ZM10.31 28.9C8.49 28.9 6.7 28.35 5.18 27.32C3.66 26.29 2.48 24.83 1.78 23.12C1.08 21.41 0.9 19.53 1.25 17.71C1.61 15.89 2.49 14.23 3.78 12.92C5.07 11.61 6.72 10.71 8.51 10.35C10.3 9.99 12.16 10.18 13.84 10.89C15.53 11.59 16.97 12.79 17.99 14.33C19 15.87 19.54 17.68 19.54 19.54C19.54 22.02 18.57 24.4 16.84 26.16C15.11 27.91 12.76 28.9 10.31 28.9ZM10 1.77C7.55 3.65 7.98 6.52 7.98 6.52C7.98 6.52 6.44 2.47 4.44 0C4.17 3.18 5.15 7.41 5.15 7.41C5.15 7.41 3.9 4.79 0.83 4.64C3.38 6.13 4.37 8.8 4.59 9.51C6.11 8.56 7.84 8.03 9.62 7.97C9.42 7.3 8.71 4.49 10 1.77Z" fill="#F19021" fill-opacity="1.000000" fill-rule="nonzero"/>
</svg>
