<svg width="20.000000" height="20.000000" viewBox="0 0 20 20" fill="none" xmlns="http://www.w3.org/2000/svg" xmlns:xlink="http://www.w3.org/1999/xlink">
	<desc>
			Created with Pixso.
	</desc>
	<defs/>
	<path id="Vector" d="M19.93 18.56L13.44 12.06C14.45 10.76 14.99 9.17 14.99 7.49C14.99 5.49 14.21 3.61 12.8 2.19C11.38 0.77 9.5 0 7.49 0C5.49 0 3.61 0.78 2.19 2.19C0.77 3.61 0 5.49 0 7.49C0 9.5 0.78 11.38 2.19 12.8C3.61 14.21 5.49 14.99 7.49 14.99C9.17 14.99 10.76 14.45 12.06 13.45L18.55 19.93C18.57 19.95 18.6 19.97 18.62 19.98C18.65 19.99 18.67 20 18.7 20C18.73 20 18.75 19.99 18.78 19.98C18.8 19.97 18.83 19.95 18.84 19.93L19.93 18.85C19.95 18.83 19.97 18.81 19.98 18.78C19.99 18.76 20 18.73 20 18.7C20 18.68 19.99 18.65 19.98 18.62C19.97 18.6 19.95 18.58 19.93 18.56ZM11.46 11.46C10.4 12.51 8.99 13.09 7.49 13.09C6 13.09 4.59 12.51 3.53 11.46C2.48 10.4 1.89 8.99 1.89 7.49C1.89 6 2.48 4.59 3.53 3.53C4.59 2.48 6 1.89 7.49 1.89C8.99 1.89 10.4 2.47 11.46 3.53C12.51 4.59 13.09 6 13.09 7.49C13.09 8.99 12.51 10.4 11.46 11.46Z" fill="#FFFFFF" fill-opacity="1.000000" fill-rule="nonzero"/>
</svg>
